<svg xmlns="http://www.w3.org/2000/svg" viewBox="0 0 100 100">
  <!-- Background circle -->
  <circle cx="50" cy="50" r="48" fill="#8B5CF6" stroke="#6D28D9" stroke-width="2"/>
  
  <!-- Open book/manga pages -->
  <path d="M 25 35 Q 25 30 30 30 L 47 30 Q 50 30 50 35 L 50 70 Q 50 73 47 73 L 30 73 Q 25 73 25 70 Z" 
        fill="#FFFFFF" stroke="#1F2937" stroke-width="1.5"/>
  <path d="M 75 35 Q 75 30 70 30 L 53 30 Q 50 30 50 35 L 50 70 Q 50 73 53 73 L 70 73 Q 75 73 75 70 Z" 
        fill="#FFFFFF" stroke="#1F2937" stroke-width="1.5"/>
  
  <!-- Page lines (manga panels) -->
  <line x1="30" y1="40" x2="45" y2="40" stroke="#8B5CF6" stroke-width="1"/>
  <line x1="30" y1="45" x2="45" y2="45" stroke="#8B5CF6" stroke-width="1"/>
  <line x1="30" y1="50" x2="42" y2="50" stroke="#8B5CF6" stroke-width="1"/>
  
  <line x1="55" y1="40" x2="70" y2="40" stroke="#8B5CF6" stroke-width="1"/>
  <line x1="55" y1="45" x2="70" y2="45" stroke="#8B5CF6" stroke-width="1"/>
  <line x1="58" y1="50" x2="70" y2="50" stroke="#8B5CF6" stroke-width="1"/>
  
  <!-- Small manga panel boxes -->
  <rect x="30" y="55" width="15" height="12" fill="none" stroke="#8B5CF6" stroke-width="0.8"/>
  <rect x="55" y="55" width="15" height="12" fill="none" stroke="#8B5CF6" stroke-width="0.8"/>
</svg>
